<svg width="685" height="268" viewBox="0 0 685 268" fill="none" xmlns="http://www.w3.org/2000/svg">
<g clip-path="url(#clip0_2_39)">
<rect width="685" height="268" fill="white"/>
<path d="M119.818 122.091L102.091 123.182C101.788 121.667 101.136 120.303 100.136 119.091C99.1364 117.848 97.8182 116.864 96.1818 116.136C94.5758 115.379 92.6515 115 90.4091 115C87.4091 115 84.8788 115.636 82.8182 116.909C80.7576 118.152 79.7273 119.818 79.7273 121.909C79.7273 123.576 80.3939 124.985 81.7273 126.136C83.0606 127.288 85.3485 128.212 88.5909 128.909L101.227 131.455C108.015 132.848 113.076 135.091 116.409 138.182C119.742 141.273 121.409 145.333 121.409 150.364C121.409 154.939 120.061 158.955 117.364 162.409C114.697 165.864 111.03 168.561 106.364 170.5C101.727 172.409 96.3788 173.364 90.3182 173.364C81.0758 173.364 73.7121 171.439 68.2273 167.591C62.7727 163.712 59.5758 158.439 58.6364 151.773L77.6818 150.773C78.2576 153.591 79.6515 155.742 81.8636 157.227C84.0758 158.682 86.9091 159.409 90.3636 159.409C93.7576 159.409 96.4849 158.758 98.5455 157.455C100.636 156.121 101.697 154.409 101.727 152.318C101.697 150.561 100.955 149.121 99.5 148C98.0455 146.848 95.803 145.97 92.7727 145.364L80.6818 142.955C73.8636 141.591 68.7879 139.227 65.4545 135.864C62.1515 132.5 60.5 128.212 60.5 123C60.5 118.515 61.7121 114.652 64.1364 111.409C66.5909 108.167 70.0303 105.667 74.4545 103.909C78.9091 102.152 84.1212 101.273 90.0909 101.273C98.9091 101.273 105.848 103.136 110.909 106.864C116 110.591 118.97 115.667 119.818 122.091ZM178.375 142.273V102.182H197.739V172H179.148V159.318H178.42C176.845 163.409 174.223 166.697 170.557 169.182C166.92 171.667 162.481 172.909 157.239 172.909C152.572 172.909 148.466 171.848 144.92 169.727C141.375 167.606 138.602 164.591 136.602 160.682C134.633 156.773 133.633 152.091 133.602 146.636V102.182H152.966V143.182C152.996 147.303 154.102 150.561 156.284 152.955C158.466 155.348 161.39 156.545 165.057 156.545C167.39 156.545 169.572 156.015 171.602 154.955C173.633 153.864 175.269 152.258 176.511 150.136C177.784 148.015 178.405 145.394 178.375 142.273ZM271.318 122.091L253.591 123.182C253.288 121.667 252.636 120.303 251.636 119.091C250.636 117.848 249.318 116.864 247.682 116.136C246.076 115.379 244.152 115 241.909 115C238.909 115 236.379 115.636 234.318 116.909C232.258 118.152 231.227 119.818 231.227 121.909C231.227 123.576 231.894 124.985 233.227 126.136C234.561 127.288 236.848 128.212 240.091 128.909L252.727 131.455C259.515 132.848 264.576 135.091 267.909 138.182C271.242 141.273 272.909 145.333 272.909 150.364C272.909 154.939 271.561 158.955 268.864 162.409C266.197 165.864 262.53 168.561 257.864 170.5C253.227 172.409 247.879 173.364 241.818 173.364C232.576 173.364 225.212 171.439 219.727 167.591C214.273 163.712 211.076 158.439 210.136 151.773L229.182 150.773C229.758 153.591 231.152 155.742 233.364 157.227C235.576 158.682 238.409 159.409 241.864 159.409C245.258 159.409 247.985 158.758 250.045 157.455C252.136 156.121 253.197 154.409 253.227 152.318C253.197 150.561 252.455 149.121 251 148C249.545 146.848 247.303 145.97 244.273 145.364L232.182 142.955C225.364 141.591 220.288 139.227 216.955 135.864C213.652 132.5 212 128.212 212 123C212 118.515 213.212 114.652 215.636 111.409C218.091 108.167 221.53 105.667 225.955 103.909C230.409 102.152 235.621 101.273 241.591 101.273C250.409 101.273 257.348 103.136 262.409 106.864C267.5 110.591 270.47 115.667 271.318 122.091ZM322.239 102.182V116.727H280.193V102.182H322.239ZM289.739 85.4545H309.102V150.545C309.102 152.333 309.375 153.727 309.92 154.727C310.466 155.697 311.223 156.379 312.193 156.773C313.193 157.167 314.345 157.364 315.648 157.364C316.557 157.364 317.466 157.288 318.375 157.136C319.284 156.955 319.981 156.818 320.466 156.727L323.511 171.136C322.542 171.439 321.178 171.788 319.42 172.182C317.663 172.606 315.527 172.864 313.011 172.955C308.345 173.136 304.254 172.515 300.739 171.091C297.254 169.667 294.542 167.455 292.602 164.455C290.663 161.455 289.708 157.667 289.739 153.091V85.4545ZM463.341 131.636V172H443.977V102.182H462.432V114.5H463.25C464.795 110.439 467.386 107.227 471.023 104.864C474.659 102.47 479.068 101.273 484.25 101.273C489.098 101.273 493.326 102.333 496.932 104.455C500.538 106.576 503.341 109.606 505.341 113.545C507.341 117.455 508.341 122.121 508.341 127.545V172H488.977V131C489.008 126.727 487.917 123.394 485.705 121C483.492 118.576 480.447 117.364 476.568 117.364C473.962 117.364 471.659 117.924 469.659 119.045C467.689 120.167 466.144 121.803 465.023 123.955C463.932 126.076 463.371 128.636 463.341 131.636ZM581.693 122.091L563.966 123.182C563.663 121.667 563.011 120.303 562.011 119.091C561.011 117.848 559.693 116.864 558.057 116.136C556.451 115.379 554.527 115 552.284 115C549.284 115 546.754 115.636 544.693 116.909C542.633 118.152 541.602 119.818 541.602 121.909C541.602 123.576 542.269 124.985 543.602 126.136C544.936 127.288 547.223 128.212 550.466 128.909L563.102 131.455C569.89 132.848 574.951 135.091 578.284 138.182C581.617 141.273 583.284 145.333 583.284 150.364C583.284 154.939 581.936 158.955 579.239 162.409C576.572 165.864 572.905 168.561 568.239 170.5C563.602 172.409 558.254 173.364 552.193 173.364C542.951 173.364 535.587 171.439 530.102 167.591C524.648 163.712 521.451 158.439 520.511 151.773L539.557 150.773C540.133 153.591 541.527 155.742 543.739 157.227C545.951 158.682 548.784 159.409 552.239 159.409C555.633 159.409 558.36 158.758 560.42 157.455C562.511 156.121 563.572 154.409 563.602 152.318C563.572 150.561 562.83 149.121 561.375 148C559.92 146.848 557.678 145.97 554.648 145.364L542.557 142.955C535.739 141.591 530.663 139.227 527.33 135.864C524.027 132.5 522.375 128.212 522.375 123C522.375 118.515 523.587 114.652 526.011 111.409C528.466 108.167 531.905 105.667 536.33 103.909C540.784 102.152 545.996 101.273 551.966 101.273C560.784 101.273 567.723 103.136 572.784 106.864C577.875 110.591 580.845 115.667 581.693 122.091Z" fill="black"/>
<path d="M354.761 173.318C350.307 173.318 346.337 172.545 342.852 171C339.367 169.424 336.61 167.106 334.58 164.045C332.58 160.955 331.58 157.106 331.58 152.5C331.58 148.621 332.292 145.364 333.716 142.727C335.14 140.091 337.08 137.97 339.534 136.364C341.989 134.758 344.777 133.545 347.898 132.727C351.049 131.909 354.352 131.333 357.807 131C361.867 130.576 365.14 130.182 367.625 129.818C370.11 129.424 371.913 128.848 373.034 128.091C374.155 127.333 374.716 126.212 374.716 124.727V124.455C374.716 121.576 373.807 119.348 371.989 117.773C370.201 116.197 367.655 115.409 364.352 115.409C360.867 115.409 358.095 116.182 356.034 117.727C353.973 119.242 352.61 121.152 351.943 123.455L334.034 122C334.943 117.758 336.731 114.091 339.398 111C342.064 107.879 345.504 105.485 349.716 103.818C353.958 102.121 358.867 101.273 364.443 101.273C368.322 101.273 372.034 101.727 375.58 102.636C379.155 103.545 382.322 104.955 385.08 106.864C387.867 108.773 390.064 111.227 391.67 114.227C393.277 117.197 394.08 120.758 394.08 124.909V172H375.716V162.318H375.17C374.049 164.5 372.549 166.424 370.67 168.091C368.792 169.727 366.534 171.015 363.898 171.955C361.261 172.864 358.216 173.318 354.761 173.318ZM360.307 159.955C363.155 159.955 365.67 159.394 367.852 158.273C370.034 157.121 371.746 155.576 372.989 153.636C374.231 151.697 374.852 149.5 374.852 147.045V139.636C374.246 140.03 373.413 140.394 372.352 140.727C371.322 141.03 370.155 141.318 368.852 141.591C367.549 141.833 366.246 142.061 364.943 142.273C363.64 142.455 362.458 142.621 361.398 142.773C359.125 143.106 357.14 143.636 355.443 144.364C353.746 145.091 352.428 146.076 351.489 147.318C350.549 148.53 350.08 150.045 350.08 151.864C350.08 154.5 351.034 156.515 352.943 157.909C354.883 159.273 357.337 159.955 360.307 159.955ZM409.102 172V102.182H428.466V172H409.102ZM418.83 93.1818C415.951 93.1818 413.481 92.2273 411.42 90.3182C409.39 88.3788 408.375 86.0606 408.375 83.3636C408.375 80.697 409.39 78.4091 411.42 76.5C413.481 74.5606 415.951 73.5909 418.83 73.5909C421.708 73.5909 424.163 74.5606 426.193 76.5C428.254 78.4091 429.284 80.697 429.284 83.3636C429.284 86.0606 428.254 88.3788 426.193 90.3182C424.163 92.2273 421.708 93.1818 418.83 93.1818Z" fill="#0ABF53"/>
<path d="M645 154.5L669 134L645 113.5M613 113.5L589 134L613 154.5" stroke="#1E1E1E" stroke-width="4" stroke-linecap="round" stroke-linejoin="round"/>
</g>
<defs>
<clipPath id="clip0_2_39">
<rect width="685" height="268" fill="white"/>
</clipPath>
</defs>
</svg>
